inDegrees=no
num_controls=7
num_derivatives=13
num_iterations=122
num_multipliers=7
num_parameters=0
num_slacks=7
num_states=26
objective=5.253298
objective_accelerations=0.626926
objective_balance=0.024332
objective_effort=0.622331
objective_height=3.886306
objective_ligament=0.093404
solver_duration=1301.057407
status=Solve_Succeeded
success=true
DataType=double
version=3
OpenSimVersion=4.4-2022-07-23-0e9fedc
endheader
time	/jointset/ground_pelvis/pelvis_tilt/value	/jointset/ground_pelvis/pelvis_tx/value	/jointset/ground_pelvis/pelvis_ty/value	/jointset/hip_l/hip_flexion_l/value	/jointset/hip_l/hip_adduction_l/value	/jointset/hip_l/hip_rotation_l/value	/jointset/back/lumbar_extension/value	/jointset/patellofemoral_l/patellar_flexion_l/value	/jointset/knee_l/knee_flexion_l/value	/jointset/knee_l/knee_adduction_l/value	/jointset/knee_l/knee_rotation_l/value	/jointset/ankle_l/ankle_angle_l/value	/jointset/subtalar_l/subtalar_angle_l/value	/jointset/ground_pelvis/pelvis_tilt/speed	/jointset/ground_pelvis/pelvis_tx/speed	/jointset/ground_pelvis/pelvis_ty/speed	/jointset/hip_l/hip_flexion_l/speed	/jointset/hip_l/hip_adduction_l/speed	/jointset/hip_l/hip_rotation_l/speed	/jointset/back/lumbar_extension/speed	/jointset/patellofemoral_l/patellar_flexion_l/speed	/jointset/knee_l/knee_flexion_l/speed	/jointset/knee_l/knee_adduction_l/speed	/jointset/knee_l/knee_rotation_l/speed	/jointset/ankle_l/ankle_angle_l/speed	/jointset/subtalar_l/subtalar_angle_l/speed	/forceset/tau_hip_flexion_l	/forceset/tau_hip_adduction_l	/forceset/tau_hip_rotation_l	/forceset/tau_knee_flexion_l	/forceset/tau_ankle_angle_l	/forceset/tau_subtalar_angle_l	/forceset/tau_lumbar_extension	lambda_cid13_p0	lambda_cid13_p1	lambda_cid13_p2	lambda_cid13_p3	lambda_cid13_p4	lambda_cid13_p5	lambda_cid14_p0	/jointset/ground_pelvis/pelvis_tilt/accel	/jointset/ground_pelvis/pelvis_tx/accel	/jointset/ground_pelvis/pelvis_ty/accel	/jointset/hip_l/hip_flexion_l/accel	/jointset/hip_l/hip_adduction_l/accel	/jointset/hip_l/hip_rotation_l/accel	/jointset/back/lumbar_extension/accel	/jointset/patellofemoral_l/patellar_flexion_l/accel	/jointset/knee_l/knee_flexion_l/accel	/jointset/knee_l/knee_adduction_l/accel	/jointset/knee_l/knee_rotation_l/accel	/jointset/ankle_l/ankle_angle_l/accel	/jointset/subtalar_l/subtalar_angle_l/accel	gamma_cid13_p0	gamma_cid13_p1	gamma_cid13_p2	gamma_cid13_p3	gamma_cid13_p4	gamma_cid13_p5	gamma_cid14_p0
1	-0.1981023493708881	-0.100335046262117	0.5719954988307816	1.732560831238529	-0.3066207565409762	0.1065508069470162	-0.9599281100088783	1.637880996049856	1.637880996049872	0.00971278481093992	-0.1745325032034038	0.2172534468607791	0.06511403151016963	0.07586202144444631	0.01591402669113019	0.08065768658634816	-0.2945252326463429	-0.01307299477758611	-0.0603239711153248	0.0001399408855190722	-0.1669659009404156	-0.1669659009404192	-0.01137282763004552	9.92978214262707e-06	0.04308704035997866	0.003092893494534215	-0.4506489524892052	-0.0186653617939989	-0.001695825599989767	-0.4080137350310912	0.1179599772648808	0.01336342418898934	0.4716411885333209	-17.02144791657349	0.741317692817692	-4.644262032811571	13.51533128554312	-838.0239524712005	-64.42916029083541	-0.03878189840776201	0.7019484432299343	-0.07805696157989918	2.199944980854553	-6.674049666990385	-0.3404333620246748	-1.727220174321215	-0.008804211292965694	-6.001688269995049	-6.00168826999503	-0.7858456548036032	-0.0280258523943397	-0.4334424708534627	-0.5835720970504641	-1.845053457648328e-09	1.25319357249551e-09	-1.205484232944599e-08	-1.87385981933349e-08	-2.259463050859904e-08	1.297713639088951e-07	-1.398931092651559e-08
1.01	-0.1973086650496698	-0.1001797214480613	0.5729118657293683	1.729282480107956	-0.306767606097724	0.1058613950430319	-0.9599268560684912	1.635911605012721	1.635911605012728	0.009560633509685293	-0.1745324370552845	0.2176625516831448	0.06511685837204198	0.08290675376879827	0.01516233496130208	0.1026011591342513	-0.3611262805840973	-0.01628263757672186	-0.07755050576290019	0.0001016324313501703	-0.2268935715103248	-0.2268935715103191	-0.01904741733035708	3.138293457986155e-06	0.03870321301837646	-0.002523689113974512	-0.4498796443503091	-0.01844358145073456	-0.001716936654557759	-0.4079714329714649	0.1178484498034321	0.01358403499541572	0.471245219732709	-17.00425973921144	0.6304902567619391	-4.612878887116183	13.33435552248667	-837.4969985578911	-64.54999510010673	-0.03881773398155196	0.710518568603699	-0.07201933108070362	2.189362377221697	-6.650329380427655	-0.3090798617105947	-1.719200378736696	-0.002726379568912886	-5.985492301244975	-5.985492301243555	-0.7567785626075348	0.01297275919884376	-0.4454612640748843	-0.5501238628252147	-6.310544125663935e-09	-1.032370558862739e-08	-7.336027232392772e-09	-1.938646872843617e-08	-2.950530892954976e-08	1.569255796782371e-07	-1.945870729415178e-08
1.02	-0.1964435768168967	-0.1000315723617831	0.5740472301505272	1.725338679093349	-0.3069461221070345	0.1049999517388255	-0.9599262616558298	1.633343500099735	1.633343500099737	0.009332033724428007	-0.174532443110769	0.218026896552442	0.06506363490381437	0.09014280375578308	0.01447888113563048	0.1244571911007071	-0.4276152094522342	-0.01940628528996118	-0.09473025116091344	8.035293586986672e-06	-0.286708676110478	-0.2867086761104622	-0.02666252442917343	-4.510943051877016e-06	0.03413504974632234	-0.008117172525448354	-0.4491103362114203	-0.01822180110746387	-0.001738047709167038	-0.4079291309118397	0.1177369223419868	0.01380464580185221	0.4708492509320898	-16.99167974313397	0.5204675313307361	-4.58162108642757	13.1854617745273	-837.0297236346794	-64.63836646574663	-0.03885698324349141	0.7402119757564963	-0.06440938074859254	2.18245686456506	-6.65162585306685	-0.3232343448453867	-1.717862324408782	-0.01986194801164076	-5.979175076043846	-5.979175076043673	-0.7739491345045606	-0.02819740195938164	-0.4703096569438362	-0.578952257643482	-1.002024848133951e-08	-2.1770406125984e-08	-2.0388237815667e-10	-2.131027630405548e-08	-3.575473810742454e-08	1.824233400843639e-07	-2.485509094052179e-08
1.03	-0.1955051490209999	-0.09988985707888759	0.5754006555579977	1.720730701274258	-0.3071554017210427	0.103966971574742	-0.9599268085479107	1.630177853394905	1.630177853394904	0.009027609621388166	-0.1745325421315666	0.2183445143783497	0.0649545988512977	0.09757674928654113	0.01388137881283569	0.1462074131783164	-0.4939477718795712	-0.02242946219566207	-0.1118527383035684	-0.0001197635986380258	-0.346397980590242	-0.3463979805902336	-0.03421068821131264	-1.344711788610075e-05	0.02934618942937318	-0.01368328362677666	-0.4480897816558711	-0.01793075594548391	-0.001757960492167397	-0.4078377604373721	0.117907177869876	0.01408369664060891	0.470332398754182	-16.86632746505913	0.3610774038485809	-4.537648685947274	12.86093678902242	-836.3397994064227	-64.77198064463867	-0.03891054791427857	0.750079837083457	-0.05484481380299702	2.168224859775852	-6.619189581230864	-0.2888253907522871	-1.707510469039146	-0.009591342306599505	-5.960399411333139	-5.960399411334373	-0.7435327337992353	0.01304216622186916	-0.4895265658941141	-0.5444226321592278	-1.372224073178713e-08	-3.321577810595524e-08	6.952888289928251e-09	-2.324710364539438e-08	-4.199741984404344e-08	2.079041978847436e-07	-3.025072955912378e-08
1.04	-0.1944913629707252	-0.09975360165037155	0.5769709671823281	1.715460374202156	-0.3073943063095725	0.1027631528272658	-0.959928703925258	1.6264159953898	1.626415995389798	0.008648047333773643	-0.1745326737358158	0.2186129731317232	0.06479010526861133	0.1052144546312137	0.01338691025972873	0.1678344344726052	-0.5600850600534575	-0.02533128019415617	-0.1288979678400335	-0.00026166178999988	-0.4059509361656242	-0.4059509361656242	-0.04169016134267831	-1.102763402814109e-05	0.02430323523947742	-0.01920867855937361	-0.4470692271003331	-0.0176397107835043	-0.001777873275205484	-0.4077463899629056	0.1180774333977678	0.01436274747936693	0.4698155465762631	-16.74607908780723	0.2025059389826271	-4.493720668363158	12.57046322495887	-835.715198318551	-64.87521914135907	-0.03896715350824512	0.7809639385394118	-0.04380262681102969	2.157816707900941	-6.612571002376688	-0.2989625634039973	-1.702410803170779	-0.0226818078378944	-5.951905295167499	-5.951905295167498	-0.7602110043498355	-0.02592627022088781	-0.5211284315331507	-0.5708090238971695	-1.876508713197988e-08	-4.414365838892729e-08	1.58446948419263e-08	-2.263021464599696e-08	-4.817433057824786e-08	2.389132865600614e-07	-3.628427520588241e-08
